Meet the Spartans*2008*[BluRay][1080p][ENG, POL, sub. CZE]

General information:
Country: USA
Release: 24 January 2008
Genre: Comedy
Director: Jason Friedberg, Aaron Seltzer
Screenplay: Jason Friedberg, Aaron Seltzer
Original Music: Christopher Lennertz 
Cinematography by: Shawn Maurer 
Duration: 1h 26mn
Language: English, Polish
Subtitles: English, Polish, Czech
Rating: 5.4/10 - 10119 votes

Cast:
Sean Maguire  ...  Leonidas  
Carmen Electra  ...  Queen Margo  
Ken Davitian  ...  Xerxes  
Kevin Sorbo  ...  Captain  
Diedrich Bader  ...  Traitoro  
Method Man  ...  Persian Emissary  
Jareb Dauplaise  ...  Dilio  
Travis Van Winkle  ...  Sonio  
Phil Morris  ...  Messenger  
Jim Piddock  ...  Loyalist / Simon Cowell Look-a-Like  
Nicole Parker  ...  Paula Abdul Look-a-Like / Britney Spears Look-a-Like / Ellen DeGeneres Look-a-Like / Hunchback Paris  
Ike Barinholtz  ...  Dane Cook Look-a-Like / Bond Villain / Prophet  
Crista Flanagan  ...  Spartan Woman / Ugly Betty Look-a-Like  
Hunter Clary  ...  Leo Jr.  
Emily Wilson  ...  Lindsay Lohan Look-a-Like  

Plot:
The heroic Spartan king Leonidas, armed with nothing but leather underwear and a cape, leads a ragtag bunch of 13 Spartan misfit warriors to defend their homeland against thousands of invading Persians whom include the Ghost Rider, Rocky Balboa, the Autobots, and an ugly hunchbacked Paris Hilton and a shaved-head Brittany Spears.

Specifications:
General
Format                           : Matroska
Overall bit rate                 : 13.5 Mbps

Video
Format                           : AVC
Format/Info                      : Advanced Video Codec
Format profile                   : High@L5.1
Format settings, CABAC           : Yes
Format settings, ReFrames        : 5 frames
Muxing mode                      : Container profile=Unknown@5.1
Codec ID                         : V_MPEG4/ISO/AVC
Bit rate                         : 11.6 Mbps
Width                            : 1 920 pixels
Height                           : 1 040 pixels
Display aspect ratio             : 16:9
Frame rate                       : 23.976 fps

Audio 1
Format                           : DTS
Format/Info                      : Digital Theater Systems
Codec ID                         : A_DTS
Bit rate mode                    : Constant
Bit rate                         : 1 510 Kbps
Channel(s)                       : 6 channels
Channel positions                : Front: L C R, Side: L R, LFE
Sampling rate                    : 48.0 KHz
Bit depth                        : 24 bits
Stream size                      : 933 MiB (11%)
Title                            : English

Audio 2
Format                           : AC-3
Format/Info                      : Audio Coding 3
Mode extension                   : CM (complete main)
Codec ID                         : A_AC3
Bit rate mode                    : Constant
Bit rate                         : 384 Kbps
Channel(s)                       : 6 channels
Channel positions                : Front: L C R, Side: L R, LFE
Sampling rate                    : 48.0 KHz
Stream size                      : 237 MiB (3%)
Title                            : Polish
Language                         : Polish

Text 
Format                           : UTF-8
Codec ID                         : S_TEXT/UTF8
Codec ID/Info                    : UTF-8 Plain Text
